HIERARCHY
ROOT Hips
{
	OFFSET 0.000000 121.760803 0.000000
	CHANNELS 6 Xposition Yposition Zposition Xrotation Yrotation Zrotation 
	JOINT Spine
	{
		OFFSET 0.072000 7.257294 -0.789700
		CHANNELS 3 Xrotation Yrotation Zrotation
		JOINT Spine1
		{
			OFFSET 0.000000 12.508769 -0.658067
			CHANNELS 3 Xrotation Yrotation Zrotation
			JOINT Spine1_split
			{
				OFFSET 0.000000 12.508769 -0.658067
				CHANNELS 3 Xrotation Yrotation Zrotation
				JOINT Spine2
				{
					OFFSET 0.000000 12.508769 -0.658067
					CHANNELS 3 Xrotation Yrotation Zrotation
					JOINT Neck
					{
						OFFSET 0.000000 14.033295 7.520400
						CHANNELS 3 Xrotation Yrotation Zrotation
						JOINT Head
						{
							OFFSET 0.000000 8.198502 5.703100
							CHANNELS 3 Xrotation Yrotation Zrotation
							JOINT HeadTop_End
							{
								OFFSET 0.000000 17.760803 13.332701
								CHANNELS 3 Xrotation Yrotation Zrotation
								End Site
								{
									OFFSET 0.000000 0.000000 0.000000
								}
							}
						}
					}
					JOINT LeftShoulder
					{
						OFFSET 6.292450 5.785301 -0.669000
						CHANNELS 3 Xrotation Yrotation Zrotation
						JOINT LeftShoulder_split
						{
							OFFSET 6.292450 5.785301 -0.669000
							CHANNELS 3 Xrotation Yrotation Zrotation
							JOINT LeftArm
							{
								OFFSET 13.907140 -6.093903 1.965100
								CHANNELS 3 Xrotation Yrotation Zrotation
								JOINT LeftForeArm
								{
									OFFSET 34.140198 0.000000 0.000000
									CHANNELS 3 Xrotation Yrotation Zrotation
									JOINT LeftHand
									{
										OFFSET 40.960209 0.000000 0.000000
										CHANNELS 3 Xrotation Yrotation Zrotation
										JOINT LeftHandThumb1
										{
											OFFSET 10.006996 -7.170425 9.573125
											CHANNELS 3 Xrotation Yrotation Zrotation
											JOINT LeftHandThumb2
											{
												OFFSET 1.835007 -1.059448 1.059443
												CHANNELS 3 Xrotation Yrotation Zrotation
												JOINT LeftHandThumb3
												{
													OFFSET 2.112267 -1.219513 1.219518
													CHANNELS 3 Xrotation Yrotation Zrotation
													JOINT LeftHandThumb4
													{
														OFFSET 4.843811 -2.796570 2.796576
														CHANNELS 3 Xrotation Yrotation Zrotation
														End Site
														{
															OFFSET 0.000000 0.000000 0.000000
														}
													}
												}
											}
										}
										JOINT LeftHandIndex1
										{
											OFFSET 18.389847 -0.922348 4.596882
											CHANNELS 3 Xrotation Yrotation Zrotation
											JOINT LeftHandIndex2
											{
												OFFSET 4.711273 0.000000 0.000000
												CHANNELS 3 Xrotation Yrotation Zrotation
												JOINT LeftHandIndex3
												{
													OFFSET 2.886131 0.000000 0.000000
													CHANNELS 3 Xrotation Yrotation Zrotation
													JOINT LeftHandIndex4
													{
														OFFSET 6.145912 0.000000 0.000000
														CHANNELS 3 Xrotation Yrotation Zrotation
														End Site
														{
															OFFSET 0.000000 0.000000 0.000000
														}
													}
												}
											}
										}
										JOINT LeftHandMiddle1
										{
											OFFSET 18.013008 0.000000 0.000000
											CHANNELS 3 Xrotation Yrotation Zrotation
											JOINT LeftHandMiddle2
											{
												OFFSET 4.946693 0.000000 0.000000
												CHANNELS 3 Xrotation Yrotation Zrotation
												JOINT LeftHandMiddle3
												{
													OFFSET 3.342232 0.000000 0.000000
													CHANNELS 3 Xrotation Yrotation Zrotation
													JOINT LeftHandMiddle4
													{
														OFFSET 4.461754 0.000000 0.000000
														CHANNELS 3 Xrotation Yrotation Zrotation
														End Site
														{
															OFFSET 0.000000 0.000000 0.000000
														}
													}
												}
											}
										}
										JOINT LeftHandRing1
										{
											OFFSET 15.849892 -0.102921 -4.126150
											CHANNELS 3 Xrotation Yrotation Zrotation
											JOINT LeftHandRing2
											{
												OFFSET 3.527054 0.000000 0.000000
												CHANNELS 3 Xrotation Yrotation Zrotation
												JOINT LeftHandRing3
												{
													OFFSET 2.961098 0.000000 0.000000
													CHANNELS 3 Xrotation Yrotation Zrotation
													JOINT LeftHandRing4
													{
														OFFSET 4.927200 0.000000 0.000000
														CHANNELS 3 Xrotation Yrotation Zrotation
														End Site
														{
															OFFSET 0.000000 0.000000 0.000000
														}
													}
												}
											}
										}
										JOINT LeftHandPinky1
										{
											OFFSET 12.791824 -0.832031 -6.799156
											CHANNELS 3 Xrotation Yrotation Zrotation
											JOINT LeftHandPinky2
											{
												OFFSET 3.327133 0.000000 0.000000
												CHANNELS 3 Xrotation Yrotation Zrotation
												JOINT LeftHandPinky3
												{
													OFFSET 3.014900 0.000000 0.000000
													CHANNELS 3 Xrotation Yrotation Zrotation
													JOINT LeftHandPinky4
													{
														OFFSET 5.847786 0.000000 0.000000
														CHANNELS 3 Xrotation Yrotation Zrotation
														End Site
														{
															OFFSET 0.000000 0.000000 0.000000
														}
													}
												}
											}
										}
									}
								}
							}
						}
					}
					JOINT RightShoulder
					{
						OFFSET -6.292450 5.785301 -0.669000
						CHANNELS 3 Xrotation Yrotation Zrotation
						JOINT RightShoulder_split
						{
							OFFSET -6.292450 5.785301 -0.669000
							CHANNELS 3 Xrotation Yrotation Zrotation
							JOINT RightArm
							{
								OFFSET -13.907140 -6.093903 1.965100
								CHANNELS 3 Xrotation Yrotation Zrotation
								JOINT RightForeArm
								{
									OFFSET -34.140198 0.000000 0.000000
									CHANNELS 3 Xrotation Yrotation Zrotation
									JOINT RightHand
									{
										OFFSET -40.960209 0.000000 0.000000
										CHANNELS 3 Xrotation Yrotation Zrotation
										JOINT RightHandThumb1
										{
											OFFSET -10.007050 -7.170456 9.573117
											CHANNELS 3 Xrotation Yrotation Zrotation
											JOINT RightHandThumb2
											{
												OFFSET -1.835007 -1.059448 1.059443
												CHANNELS 3 Xrotation Yrotation Zrotation
												JOINT RightHandThumb3
												{
													OFFSET -2.112267 -1.219513 1.219518
													CHANNELS 3 Xrotation Yrotation Zrotation
													JOINT RightHandThumb4
													{
														OFFSET -4.843834 -2.796585 2.796590
														CHANNELS 3 Xrotation Yrotation Zrotation
														End Site
														{
															OFFSET 0.000000 0.000000 0.000000
														}
													}
												}
											}
										}
										JOINT RightHandIndex1
										{
											OFFSET -18.389870 -0.922424 4.596786
											CHANNELS 3 Xrotation Yrotation Zrotation
											JOINT RightHandIndex2
											{
												OFFSET -4.711273 0.000000 0.000000
												CHANNELS 3 Xrotation Yrotation Zrotation
												JOINT RightHandIndex3
												{
													OFFSET -2.886131 0.000000 0.000000
													CHANNELS 3 Xrotation Yrotation Zrotation
													JOINT RightHandIndex4
													{
														OFFSET -6.145920 0.000000 0.000000
														CHANNELS 3 Xrotation Yrotation Zrotation
														End Site
														{
															OFFSET 0.000000 0.000000 0.000000
														}
													}
												}
											}
										}
										JOINT RightHandMiddle1
										{
											OFFSET -18.013008 0.000000 0.000000
											CHANNELS 3 Xrotation Yrotation Zrotation
											JOINT RightHandMiddle2
											{
												OFFSET -4.946693 0.000000 0.000000
												CHANNELS 3 Xrotation Yrotation Zrotation
												JOINT RightHandMiddle3
												{
													OFFSET -3.342232 0.000000 0.000000
													CHANNELS 3 Xrotation Yrotation Zrotation
													JOINT RightHandMiddle4
													{
														OFFSET -4.461754 0.000000 0.000000
														CHANNELS 3 Xrotation Yrotation Zrotation
														End Site
														{
															OFFSET 0.000000 0.000000 0.000000
														}
													}
												}
											}
										}
										JOINT RightHandRing1
										{
											OFFSET -15.849876 -0.102936 -4.126237
											CHANNELS 3 Xrotation Yrotation Zrotation
											JOINT RightHandRing2
											{
												OFFSET -3.527054 0.000000 0.000000
												CHANNELS 3 Xrotation Yrotation Zrotation
												JOINT RightHandRing3
												{
													OFFSET -2.961098 0.000000 0.000000
													CHANNELS 3 Xrotation Yrotation Zrotation
													JOINT RightHandRing4
													{
														OFFSET -4.927200 0.000000 0.000000
														CHANNELS 3 Xrotation Yrotation Zrotation
														End Site
														{
															OFFSET 0.000000 0.000000 0.000000
														}
													}
												}
											}
										}
										JOINT RightHandPinky1
										{
											OFFSET -12.791786 -0.832077 -6.799222
											CHANNELS 3 Xrotation Yrotation Zrotation
											JOINT RightHandPinky2
											{
												OFFSET -3.327133 0.000000 0.000000
												CHANNELS 3 Xrotation Yrotation Zrotation
												JOINT RightHandPinky3
												{
													OFFSET -3.014900 0.000000 0.000000
													CHANNELS 3 Xrotation Yrotation Zrotation
													JOINT RightHandPinky4
													{
														OFFSET -5.847786 0.000000 0.000000
														CHANNELS 3 Xrotation Yrotation Zrotation
														End Site
														{
															OFFSET 0.000000 0.000000 0.000000
														}
													}
												}
											}
										}
									}
								}
							}
						}
					}
				}
			}
		}
	}
	JOINT LeftUpLeg
	{
		OFFSET 13.026900 -6.336304 -1.092800
		CHANNELS 3 Xrotation Yrotation Zrotation
		JOINT LeftLeg
		{
			OFFSET 0.524474 -46.096886 9.782700
			CHANNELS 3 Xrotation Yrotation Zrotation
			JOINT LeftFoot
			{
				OFFSET -0.524474 -53.427422 -12.948200
				CHANNELS 3 Xrotation Yrotation Zrotation
				JOINT LeftToeBase
				{
					OFFSET 0.192200 -14.009700 16.364100
					CHANNELS 3 Xrotation Yrotation Zrotation
					JOINT LeftToe_End
					{
						OFFSET -1.784700 -0.561700 9.474800
						CHANNELS 3 Xrotation Yrotation Zrotation
						End Site
						{
							OFFSET 0.000000 0.000000 0.000000
						}
					}
				}
			}
		}
	}
	JOINT RightUpLeg
	{
		OFFSET -12.883000 -6.336304 -1.092800
		CHANNELS 3 Xrotation Yrotation Zrotation
		JOINT RightLeg
		{
			OFFSET -0.524587 -46.096825 9.782800
			CHANNELS 3 Xrotation Yrotation Zrotation
			JOINT RightFoot
			{
				OFFSET 0.524587 -53.427383 -12.948300
				CHANNELS 3 Xrotation Yrotation Zrotation
				JOINT RightToeBase
				{
					OFFSET -0.192200 -14.009700 16.364100
					CHANNELS 3 Xrotation Yrotation Zrotation
					JOINT RightToe_End
					{
						OFFSET 1.784700 -0.561700 9.474800
						CHANNELS 3 Xrotation Yrotation Zrotation
						End Site
						{
							OFFSET 0.000000 0.000000 0.000000
						}
					}
				}
			}
		}
	}
}
MOTION
Frames: 4
Frame Time: 0.016667
-1.313684 100.640953 12.441045 3.862914 -66.015650 0.126755 8.174333 -8.080974 8.570968 -0.190737 -11.250294 6.028640 0.000000 0.000000 0.000000 -11.447047 -11.562242 5.338306 3.252605 40.080312 6.930928 20.046156 25.136464 -4.753813 -0.000001 -0.000000 0.000000 7.036029 -21.717430 28.304178 0.000000 0.000000 0.000000 -17.434025 -22.035030 -5.063763 -0.024463 -18.120272 -4.741180 -3.552993 -6.370909 13.626881 42.313039 -18.874772 16.581736 -1.124726 11.542630 -8.102159 13.619870 23.384787 -3.936919 0.000001 -0.000001 -0.000002 -2.169675 -7.707833 -52.286440 -1.077024 -2.178637 -57.035809 -1.235690 -2.399998 -59.576967 -0.000001 -0.000001 -0.000002 0.593505 2.455631 -56.484380 -1.132152 -2.997382 -65.080235 -1.109080 -3.236923 -68.590262 0.000001 -0.000000 -0.000001 1.303219 5.891422 -65.858214 -2.589229 -2.454422 -70.907971 -2.769609 -2.572070 -74.074091 -0.000002 -0.000002 -0.000000 0.029072 4.541960 -74.162385 -2.684735 -2.230677 -68.744679 -4.371504 -1.181399 -86.667526 0.000000 -0.000000 0.000000 0.930709 -15.187706 4.991297 0.000000 0.000000 0.000000 -54.595215 -4.695027 -21.803099 -1.943035 39.705457 7.057021 -51.183453 -15.861540 -14.387256 55.149522 18.649572 -29.698257 -0.442554 -14.180544 7.313137 21.667003 -29.244500 9.142377 -0.000001 0.000001 0.000000 5.673364 7.585018 36.844165 1.050466 3.824495 68.900257 0.499578 3.026039 62.196433 -0.000001 -0.000000 0.000000 -0.125705 1.886092 45.000780 -1.169014 3.204702 68.417677 -0.936436 1.813613 41.107535 -0.000000 0.000000 0.000002 -5.312017 1.216640 58.508821 -0.745206 1.667566 48.011247 -0.816488 1.840604 53.666555 -0.000000 0.000000 0.000000 -7.756797 -9.376466 47.264035 -0.526052 1.541597 45.600511 -0.508191 0.803428 24.986610 0.000000 0.000001 0.000000 -31.152083 44.961687 42.990126 54.605925 10.085639 -4.598116 -26.656707 6.238621 6.684684 -1.803466 3.939515 -9.476685 -0.000000 0.000000 -0.000001 -19.616365 2.468847 -26.209400 31.543326 2.270534 -0.226484 -16.415562 -1.673275 24.988787 1.601745 -2.595643 4.658268 -0.000000 0.000000 -0.000000 
-2.209342 101.161690 13.191601 0.175729 -63.159497 -2.874943 7.866777 -8.120126 8.308194 -0.769985 -11.249927 5.778993 0.000000 0.000000 0.000000 -12.026593 -11.514014 5.093313 5.352067 37.304745 7.154960 18.938299 24.498256 -3.642635 -0.000001 -0.000000 0.000000 7.857579 -21.919612 30.974457 0.000000 0.000000 0.000000 -21.326275 -25.568306 -2.826525 -0.025391 -17.497930 -4.137784 -2.765577 -6.958310 14.864489 42.927582 -18.897860 16.453205 -0.945121 11.655988 -8.273441 14.060071 23.951416 -4.258786 0.000001 0.000002 -0.000000 -2.215075 -7.742176 -53.603878 -1.119918 -2.204948 -58.146124 -1.288617 -2.431007 -60.890276 -0.000001 -0.000000 -0.000004 0.537336 2.419241 -57.792744 -1.191428 -3.024541 -66.361141 -1.171501 -3.261361 -69.904623 -0.000002 0.000000 0.000001 1.239044 5.863650 -67.162261 -2.655540 -2.476367 -72.221362 -2.839690 -2.591469 -75.387694 0.000000 -0.000000 -0.000001 -0.038014 4.523870 -75.467634 -2.752218 -2.255876 -70.057715 -4.435350 -1.183684 -87.979708 -0.000000 0.000001 -0.000000 0.146581 -15.459966 2.713261 0.000000 0.000000 0.000000 -57.506122 -5.072674 -23.534935 -0.738080 40.895170 7.076530 -50.027321 -13.816080 -14.796360 55.149526 18.649572 -29.698257 -0.442552 -14.180542 7.313142 21.666994 -29.244500 9.142378 -0.000000 -0.000002 0.000001 5.673365 7.585022 36.844158 1.050466 3.824494 68.900257 0.499577 3.026040 62.196433 -0.000000 0.000001 0.000001 -0.125705 1.886093 45.000776 -1.169015 3.204699 68.417670 -0.936434 1.813613 41.107535 -0.000000 0.000000 0.000000 -5.312019 1.216641 58.508821 -0.745207 1.667565 48.011251 -0.816490 1.840603 53.666552 -0.000001 0.000001 0.000002 -7.756799 -9.376465 47.264031 -0.526051 1.541597 45.600508 -0.508193 0.803431 24.986618 0.000000 -0.000003 -0.000000 -28.067979 44.903822 41.066137 52.953733 10.095102 -4.170137 -27.250296 5.694830 8.163449 -1.326747 4.280855 -9.756332 0.000000 0.000001 -0.000000 -15.665184 2.411185 -26.952598 32.454057 -0.018755 0.846935 -19.013522 -2.897154 21.843076 1.604878 -3.250271 5.258788 -0.000000 0.000000 0.000000 
-3.072985 101.823776 14.119256 -2.745310 -60.087831 -4.807482 7.471304 -8.124121 7.934293 -1.527754 -11.209408 5.298613 0.000000 0.000000 0.000000 -12.782774 -11.382097 4.629936 8.338204 34.560385 6.887033 17.862386 23.738210 -2.470272 -0.000001 0.000002 -0.000001 8.584868 -21.755782 33.610162 0.000000 0.000000 0.000000 -27.651778 -28.364638 -2.405176 -0.026668 -18.419755 -2.358919 -5.291957 -5.926817 14.285836 43.353970 -18.915852 16.360962 -0.820381 11.735196 -8.393320 14.368876 24.345661 -4.486627 0.000000 0.000000 -0.000001 -2.247298 -7.764470 -54.521982 -1.150278 -2.222077 -58.919910 -1.326529 -2.452332 -61.805453 0.000000 0.000001 -0.000001 0.497584 2.394604 -58.704465 -1.233043 -3.040915 -67.253772 -1.215414 -3.277668 -70.820592 0.000003 -0.000001 0.000003 1.193964 5.845133 -68.070895 -2.702007 -2.490731 -73.136518 -2.888852 -2.602351 -76.303014 -0.000001 -0.000001 -0.000000 -0.085028 4.512099 -76.377204 -2.799537 -2.272582 -70.972701 -4.479978 -1.184796 -88.894051 -0.000001 -0.000001 0.000000 -0.667861 -15.637522 0.241172 0.000000 0.000000 0.000000 -60.363566 -5.259261 -25.202683 0.541709 42.083213 7.030207 -48.692815 -11.717020 -15.338684 55.149526 18.649572 -29.698260 -0.442548 -14.180539 7.313142 21.666998 -29.244500 9.142377 0.000002 -0.000000 -0.000002 5.673366 7.585018 36.844161 1.050466 3.824494 68.900250 0.499575 3.026039 62.196433 -0.000000 0.000004 0.000006 -0.125704 1.886092 45.000776 -1.169014 3.204701 68.417670 -0.936432 1.813612 41.107535 0.000000 -0.000000 -0.000003 -5.312017 1.216639 58.508821 -0.745206 1.667566 48.011247 -0.816486 1.840604 53.666552 -0.000003 -0.000000 0.000001 -7.756800 -9.376467 47.264028 -0.526054 1.541597 45.600505 -0.508193 0.803431 24.986621 -0.000001 -0.000003 -0.000000 -24.390985 45.334073 38.720513 50.680922 10.181640 -4.010144 -27.995825 5.200091 9.421062 -0.812993 4.650536 -10.063380 -0.000000 -0.000001 -0.000001 -11.351695 2.258417 -28.236639 32.898907 -2.887122 2.774503 -20.353120 -4.416802 18.522447 0.868984 -3.764557 5.595897 -0.000000 -0.000001 -0.000000 
-3.840609 102.584602 15.453525 -4.292947 -57.097291 -5.460379 6.956621 -8.110898 7.534367 -2.535070 -11.161995 4.689575 0.000000 0.000000 0.000000 -13.787174 -11.218753 4.041874 11.602462 31.881103 6.465376 17.424398 22.943901 -1.329564 -0.000000 -0.000000 -0.000000 8.478563 -20.502874 36.126264 0.000000 0.000000 0.000000 -34.534765 -32.188421 -4.145007 -0.027677 -17.857391 -0.308365 -9.297713 -5.515038 15.170683 43.570579 -18.924885 16.312495 -0.757216 11.775687 -8.454616 14.526731 24.546199 -4.603820 0.000000 0.000000 0.000001 -2.263432 -7.775081 -54.989546 -1.165436 -2.230476 -59.314080 -1.345038 -2.462525 -62.271552 -0.000000 -0.000000 0.000000 0.478519 2.383211 -59.168932 -1.253576 -3.047950 -67.708451 -1.237031 -3.285221 -71.287087 0.000000 -0.000000 -0.000002 1.171032 5.836710 -68.533695 -2.726084 -2.497395 -73.602802 -2.914662 -2.606574 -76.769257 -0.000000 -0.000000 0.000001 -0.109023 4.506864 -76.840448 -2.824284 -2.279915 -71.438834 -4.503022 -1.185305 -89.359816 -0.000000 -0.000001 0.000000 -1.505398 -15.764159 -2.396708 0.000000 0.000000 0.000000 -63.043377 -5.187514 -26.544796 1.665750 43.271858 6.930266 -47.203157 -9.686946 -15.881245 55.149522 18.649572 -29.698267 -0.442547 -14.180542 7.313140 21.666989 -29.244493 9.142383 -0.000002 -0.000000 -0.000002 5.673365 7.585022 36.844158 1.050466 3.824490 68.900257 0.499576 3.026039 62.196433 -0.000001 0.000003 0.000000 -0.125705 1.886094 45.000776 -1.169015 3.204701 68.417670 -0.936434 1.813613 41.107535 -0.000000 0.000000 -0.000000 -5.312017 1.216640 58.508814 -0.745208 1.667567 48.011251 -0.816485 1.840605 53.666552 0.000002 -0.000001 0.000002 -7.756800 -9.376467 47.264028 -0.526053 1.541599 45.600508 -0.508191 0.803426 24.986615 -0.000002 -0.000000 0.000000 -20.855682 45.619790 36.816861 48.337382 8.284355 -4.491085 -27.561258 5.669142 8.354111 -0.265170 4.748698 -10.098269 -0.000001 0.000001 -0.000000 -7.202434 1.844490 -29.944891 32.619392 -6.000558 5.650396 -19.708362 -5.740250 14.657777 -0.263995 -4.564309 6.099494 0.000000 -0.000001 0.000000 
